<svg width="17" height="18" viewBox="0 0 17 18" fill="none" xmlns="http://www.w3.org/2000/svg">
<g clip-path="url(#clip0_226_1465)">
<path d="M2.125 9.28003C2.125 10.1172 2.28989 10.9462 2.61027 11.7196C2.93064 12.4931 3.40022 13.1959 3.99219 13.7878C4.58417 14.3798 5.28694 14.8494 6.06039 15.1698C6.83384 15.4901 7.66282 15.655 8.5 15.655C9.33718 15.655 10.1662 15.4901 10.9396 15.1698C11.7131 14.8494 12.4158 14.3798 13.0078 13.7878C13.5998 13.1959 14.0694 12.4931 14.3897 11.7196C14.7101 10.9462 14.875 10.1172 14.875 9.28003C14.875 7.58927 14.2033 5.96777 13.0078 4.77222C11.8123 3.57668 10.1908 2.90503 8.5 2.90503C6.80924 2.90503 5.18774 3.57668 3.99219 4.77222C2.79665 5.96777 2.125 7.58927 2.125 9.28003Z" stroke="#6A6A6A" stroke-linecap="round" stroke-linejoin="round"/>
<path d="M8.5 7.15503H8.50759" stroke="#6A6A6A" stroke-linecap="round" stroke-linejoin="round"/>
<path d="M7.7915 9.28003H8.49984V12.1134H9.20817" stroke="#6A6A6A" stroke-linecap="round" stroke-linejoin="round"/>
</g>
<defs>
<clipPath id="clip0_226_1465">
<rect width="17" height="17" fill="white" transform="translate(0 0.780029)"/>
</clipPath>
</defs>
</svg>
